<svg xmlns="http://www.w3.org/2000/svg" viewBox="0 0 1600 900"><rect fill="#258eff" width="1600" height="900"/><polygon fill="#e68a8a" points="957 450 539 900 1396 900"/><polygon fill="#540707" points="957 450 872.9 900 1396 900"/><polygon fill="#ae2c46" points="-60 900 398 662 816 900"/><polygon fill="#b75d7e" points="337 900 398 662 816 900"/><polygon fill="#bc5478" points="1203 546 1552 900 876 900"/><polygon fill="#7a205c" points="1203 546 1552 900 1162 900"/><polygon fill="#b21666" points="641 695 886 900 367 900"/><polygon fill="#9575aa" points="587 900 641 695 886 900"/><polygon fill="#af5394" points="1710 900 1401 632 1096 900"/><polygon fill="#3e4b6f" points="1710 900 1401 632 1365 900"/><polygon fill="#7f337f" points="1210 900 971 687 725 900"/><polygon fill="#1d6991" points="943 900 1210 900 971 687"/></svg>